<svg width="48" height="48" viewBox="0 0 48 48" fill="none" xmlns="http://www.w3.org/2000/svg">
<path d="M9.41824 35.1205H4L17.6032 12H23.3673L36.3942 35.1205H30.3995L19.9089 16.5085L9.41824 35.1205Z" fill="#ED5B00"/>
<path d="M43 18.2246L37.2199 19.374V35.1204H43V18.2246Z" fill="#ED5B00"/>
<path d="M43 12H37.2199V18.7329L43 17.5896V12Z" fill="#ED5B00"/>
<path d="M18.2915 27.4717C18.2915 28.3677 18.9708 28.9171 19.3105 29.0799L18.2915 33.2151H21.785L20.7661 29.0799C21.1057 28.9171 21.785 28.3677 21.785 27.4717C21.785 26.3517 20.999 25.72 20.0092 25.72C19.0193 25.72 18.2915 26.3517 18.2915 27.4717Z" fill="#ED5B00"/>
</svg>
