<svg width="551" height="134" viewBox="0 0 551 134" fill="none" xmlns="http://www.w3.org/2000/svg">
<rect x="242.5" width="173" height="88" rx="8" fill="#ED5B00"/>
<path d="M253.5 6L324.5 6C326.709 6 328.5 7.79086 328.5 10L328.5 78C328.5 80.2091 326.709 82 324.5 82L315.349 82C313.14 82 311.349 80.2091 311.349 78L311.349 24.8603C311.349 22.6512 309.558 20.8603 307.349 20.8603L299.395 20.8603L280.684 20.8603L271.691 20.8603C269.482 20.8603 267.691 22.6512 267.691 24.8603L267.691 78C267.691 80.2091 265.9 82 263.691 82L253.5 82C251.291 82 249.5 80.2091 249.5 78L249.5 10C249.5 7.79086 251.291 6 253.5 6Z" fill="white"/>
<path d="M311.5 46L280.389 46C276.94 46 275.108 50.0718 277.395 52.6528L286.256 62.6528C287.015 63.5096 288.105 64 289.25 64L311.5 64C313.709 64 315.5 62.2091 315.5 60L315.5 50C315.5 47.7909 313.709 46 311.5 46Z" fill="white"/>
<path d="M15 82H16.5C20.9183 82 24.5 78.4183 24.5 74V30C24.5 25.5817 28.0817 22 32.5 22H74C76.2091 22 78 23.7909 78 26V30C78 32.2091 76.2091 34 74 34H40C35.5817 34 32 37.5817 32 42V74C32 78.4183 35.5817 82 40 82H89C93.4183 82 97 78.4183 97 74V71C97 66.5817 93.4183 63 89 63H57C52.5817 63 49 59.4183 49 55C49 52.7909 50.7909 51 53 51H89C93.4183 51 97 47.4183 97 43V13C97 8.58172 93.4183 5 89 5H15C10.5817 5 7 8.58172 7 13V74C7 78.4183 10.5817 82 15 82Z" fill="#ED5B00"/>
<path d="M108.5 68.5V18.5C108.5 11.3203 114.32 5.5 121.5 5.5H185.382C192.351 5.5 198 11.1491 198 18.1176C198 20.2618 196.262 22 194.118 22H137.5C131.149 22 126 27.1487 126 33.5V51.5C126 58.4036 131.596 64 138.5 64H194C196.209 64 198 65.7909 198 68V68.5C198 75.6797 192.18 81.5 185 81.5H121.5C114.32 81.5 108.5 75.6797 108.5 68.5Z" fill="#ED5B00"/>
<path d="M139 38V45C139 47.7614 141.239 50 144 50H192C194.761 50 197 47.7614 197 45V38C197 35.2386 194.761 33 192 33H144C141.239 33 139 35.2386 139 38Z" fill="#ED5B00"/>
<rect x="211.5" y="65" width="17" height="17" rx="4" fill="#ED5B00"/>
<rect x="429.5" y="65" width="17" height="17" rx="4" fill="#ED5B00"/>
<path d="M404.5 82H344.5C342.291 82 340.5 80.2091 340.5 78V68.8695C340.5 66.6674 342.28 64.8794 344.482 64.8695L361.891 64.7912C364.093 64.7813 365.873 62.9934 365.873 60.7913V27.1126C365.873 24.9034 364.082 23.1126 361.873 23.1126H344.5C342.291 23.1126 340.5 21.3217 340.5 19.1126V10C340.5 7.79086 342.291 6 344.5 6H404.5C406.709 6 408.5 7.79086 408.5 10V19.1126C408.5 21.3217 406.709 23.1126 404.5 23.1126H387.634C385.425 23.1126 383.634 24.9034 383.634 27.1126V60.8874C383.634 63.0966 385.425 64.8874 387.634 64.8874H404.5C406.709 64.8874 408.5 66.6783 408.5 68.8874V78C408.5 80.2091 406.709 82 404.5 82Z" fill="white"/>
<path d="M478.432 22.5442H527.461C536.319 22.5442 543.5 15.3633 543.5 6.50517C543.5 6.22617 543.274 6 542.995 6H473.5C466.32 6 460.5 11.8203 460.5 19V39.5306C460.5 46.7103 466.32 52.5306 473.5 52.5306H523.617C525.826 52.5306 527.617 54.3215 527.617 56.5306V60.9388C527.617 63.1479 525.826 64.9388 523.617 64.9388H476.364C467.603 64.9388 460.5 72.0413 460.5 80.8027C460.5 81.464 461.036 82 461.697 82H530.5C537.68 82 543.5 76.1797 543.5 69V48.4694C543.5 41.2897 537.68 35.4694 530.5 35.4694H480.383C478.174 35.4694 476.383 33.6785 476.383 31.4694V24.5936C476.383 23.4618 477.3 22.5442 478.432 22.5442Z" fill="#ED5B00"/>
<path d="M19.6627 127V108.1H26.7367C28.3387 108.1 29.7157 108.361 30.8677 108.883C32.0197 109.387 32.9017 110.125 33.5137 111.097C34.1437 112.051 34.4587 113.212 34.4587 114.58C34.4587 115.912 34.1437 117.064 33.5137 118.036C32.9017 118.99 32.0197 119.728 30.8677 120.25C29.7157 120.754 28.3387 121.006 26.7367 121.006H20.7697L21.6607 120.088V127H19.6627ZM32.5687 127L27.7087 120.142H29.8687L34.7557 127H32.5687ZM21.6607 120.25L20.7697 119.305H26.6827C28.5727 119.305 30.0037 118.891 30.9757 118.063C31.9657 117.235 32.4607 116.074 32.4607 114.58C32.4607 113.068 31.9657 111.898 30.9757 111.07C30.0037 110.242 28.5727 109.828 26.6827 109.828H20.7697L21.6607 108.883V120.25ZM49.0565 116.551H59.0465V118.252H49.0565V116.551ZM49.2725 125.272H60.6395V127H47.2745V108.1H60.2345V109.828H49.2725V125.272ZM70.412 127L79.052 108.1H81.023L89.663 127H87.557L79.619 109.261H80.429L72.491 127H70.412ZM73.814 121.951L74.408 120.331H85.397L85.991 121.951H73.814ZM100.89 127V108.1H102.888V125.272H113.472V127H100.89ZM141.837 116.551H151.827V118.252H141.837V116.551ZM142.053 125.272H153.42V127H140.055V108.1H153.015V109.828H142.053V125.272ZM171.428 127.162C170.024 127.162 168.674 126.937 167.378 126.487C166.1 126.019 165.11 125.425 164.408 124.705L165.191 123.166C165.857 123.814 166.748 124.363 167.864 124.813C168.998 125.245 170.186 125.461 171.428 125.461C172.616 125.461 173.579 125.317 174.317 125.029C175.073 124.723 175.622 124.318 175.964 123.814C176.324 123.31 176.504 122.752 176.504 122.14C176.504 121.402 176.288 120.808 175.856 120.358C175.442 119.908 174.893 119.557 174.209 119.305C173.525 119.035 172.769 118.801 171.941 118.603C171.113 118.405 170.285 118.198 169.457 117.982C168.629 117.748 167.864 117.442 167.162 117.064C166.478 116.686 165.92 116.191 165.488 115.579C165.074 114.949 164.867 114.13 164.867 113.122C164.867 112.186 165.11 111.331 165.596 110.557C166.1 109.765 166.865 109.135 167.891 108.667C168.917 108.181 170.231 107.938 171.833 107.938C172.895 107.938 173.948 108.091 174.992 108.397C176.036 108.685 176.936 109.09 177.692 109.612L177.017 111.205C176.207 110.665 175.343 110.269 174.425 110.017C173.525 109.765 172.652 109.639 171.806 109.639C170.672 109.639 169.736 109.792 168.998 110.098C168.26 110.404 167.711 110.818 167.351 111.34C167.009 111.844 166.838 112.42 166.838 113.068C166.838 113.806 167.045 114.4 167.459 114.85C167.891 115.3 168.449 115.651 169.133 115.903C169.835 116.155 170.6 116.38 171.428 116.578C172.256 116.776 173.075 116.992 173.885 117.226C174.713 117.46 175.469 117.766 176.153 118.144C176.855 118.504 177.413 118.99 177.827 119.602C178.259 120.214 178.475 121.015 178.475 122.005C178.475 122.923 178.223 123.778 177.719 124.57C177.215 125.344 176.441 125.974 175.397 126.46C174.371 126.928 173.048 127.162 171.428 127.162ZM194.337 127V109.828H187.695V108.1H202.977V109.828H196.335V127H194.337ZM210.295 127L218.935 108.1H220.906L229.546 127H227.44L219.502 109.261H220.312L212.374 127H210.295ZM213.697 121.951L214.291 120.331H225.28L225.874 121.951H213.697ZM243.495 127V109.828H236.853V108.1H252.136V109.828H245.493V127H243.495ZM265.209 116.551H275.199V118.252H265.209V116.551ZM265.425 125.272H276.792V127H263.427V108.1H276.387V109.828H265.425V125.272ZM301.731 127L310.371 108.1H312.342L320.982 127H318.876L310.938 109.261H311.748L303.81 127H301.731ZM305.133 121.951L305.727 120.331H316.716L317.31 121.951H305.133ZM332.209 127V108.1H334.207V127H332.209ZM368.834 127.162C367.43 127.162 366.08 126.937 364.784 126.487C363.506 126.019 362.516 125.425 361.814 124.705L362.597 123.166C363.263 123.814 364.154 124.363 365.27 124.813C366.404 125.245 367.592 125.461 368.834 125.461C370.022 125.461 370.985 125.317 371.723 125.029C372.479 124.723 373.028 124.318 373.37 123.814C373.73 123.31 373.91 122.752 373.91 122.14C373.91 121.402 373.694 120.808 373.262 120.358C372.848 119.908 372.299 119.557 371.615 119.305C370.931 119.035 370.175 118.801 369.347 118.603C368.519 118.405 367.691 118.198 366.863 117.982C366.035 117.748 365.27 117.442 364.568 117.064C363.884 116.686 363.326 116.191 362.894 115.579C362.48 114.949 362.273 114.13 362.273 113.122C362.273 112.186 362.516 111.331 363.002 110.557C363.506 109.765 364.271 109.135 365.297 108.667C366.323 108.181 367.637 107.938 369.239 107.938C370.301 107.938 371.354 108.091 372.398 108.397C373.442 108.685 374.342 109.09 375.098 109.612L374.423 111.205C373.613 110.665 372.749 110.269 371.831 110.017C370.931 109.765 370.058 109.639 369.212 109.639C368.078 109.639 367.142 109.792 366.404 110.098C365.666 110.404 365.117 110.818 364.757 111.34C364.415 111.844 364.244 112.42 364.244 113.068C364.244 113.806 364.451 114.4 364.865 114.85C365.297 115.3 365.855 115.651 366.539 115.903C367.241 116.155 368.006 116.38 368.834 116.578C369.662 116.776 370.481 116.992 371.291 117.226C372.119 117.46 372.875 117.766 373.559 118.144C374.261 118.504 374.819 118.99 375.233 119.602C375.665 120.214 375.881 121.015 375.881 122.005C375.881 122.923 375.629 123.778 375.125 124.57C374.621 125.344 373.847 125.974 372.803 126.46C371.777 126.928 370.454 127.162 368.834 127.162ZM392.448 127V119.98L392.907 121.222L384.888 108.1H387.021L394.068 119.629H392.934L399.981 108.1H401.979L393.96 121.222L394.419 119.98V127H392.448ZM417.993 127.162C416.589 127.162 415.239 126.937 413.943 126.487C412.665 126.019 411.675 125.425 410.973 124.705L411.756 123.166C412.422 123.814 413.313 124.363 414.429 124.813C415.563 125.245 416.751 125.461 417.993 125.461C419.181 125.461 420.144 125.317 420.882 125.029C421.638 124.723 422.187 124.318 422.529 123.814C422.889 123.31 423.069 122.752 423.069 122.14C423.069 121.402 422.853 120.808 422.421 120.358C422.007 119.908 421.458 119.557 420.774 119.305C420.09 119.035 419.334 118.801 418.506 118.603C417.678 118.405 416.85 118.198 416.022 117.982C415.194 117.748 414.429 117.442 413.727 117.064C413.043 116.686 412.485 116.191 412.053 115.579C411.639 114.949 411.432 114.13 411.432 113.122C411.432 112.186 411.675 111.331 412.161 110.557C412.665 109.765 413.43 109.135 414.456 108.667C415.482 108.181 416.796 107.938 418.398 107.938C419.46 107.938 420.513 108.091 421.557 108.397C422.601 108.685 423.501 109.09 424.257 109.612L423.582 111.205C422.772 110.665 421.908 110.269 420.99 110.017C420.09 109.765 419.217 109.639 418.371 109.639C417.237 109.639 416.301 109.792 415.563 110.098C414.825 110.404 414.276 110.818 413.916 111.34C413.574 111.844 413.403 112.42 413.403 113.068C413.403 113.806 413.61 114.4 414.024 114.85C414.456 115.3 415.014 115.651 415.698 115.903C416.4 116.155 417.165 116.38 417.993 116.578C418.821 116.776 419.64 116.992 420.45 117.226C421.278 117.46 422.034 117.766 422.718 118.144C423.42 118.504 423.978 118.99 424.392 119.602C424.824 120.214 425.04 121.015 425.04 122.005C425.04 122.923 424.788 123.778 424.284 124.57C423.78 125.344 423.006 125.974 421.962 126.46C420.936 126.928 419.613 127.162 417.993 127.162ZM440.901 127V109.828H434.259V108.1H449.541V109.828H442.899V127H440.901ZM462.615 116.551H472.605V118.252H462.615V116.551ZM462.831 125.272H474.198V127H460.833V108.1H473.793V109.828H462.831V125.272ZM486.995 127V108.1H488.642L497.282 122.842H496.418L504.977 108.1H506.624V127H504.707V111.097H505.166L497.282 124.597H496.337L488.399 111.097H488.912V127H486.995ZM526.093 127.162C524.689 127.162 523.339 126.937 522.043 126.487C520.765 126.019 519.775 125.425 519.073 124.705L519.856 123.166C520.522 123.814 521.413 124.363 522.529 124.813C523.663 125.245 524.851 125.461 526.093 125.461C527.281 125.461 528.244 125.317 528.982 125.029C529.738 124.723 530.287 124.318 530.629 123.814C530.989 123.31 531.169 122.752 531.169 122.14C531.169 121.402 530.953 120.808 530.521 120.358C530.107 119.908 529.558 119.557 528.874 119.305C528.19 119.035 527.434 118.801 526.606 118.603C525.778 118.405 524.95 118.198 524.122 117.982C523.294 117.748 522.529 117.442 521.827 117.064C521.143 116.686 520.585 116.191 520.153 115.579C519.739 114.949 519.532 114.13 519.532 113.122C519.532 112.186 519.775 111.331 520.261 110.557C520.765 109.765 521.53 109.135 522.556 108.667C523.582 108.181 524.896 107.938 526.498 107.938C527.56 107.938 528.613 108.091 529.657 108.397C530.701 108.685 531.601 109.09 532.357 109.612L531.682 111.205C530.872 110.665 530.008 110.269 529.09 110.017C528.19 109.765 527.317 109.639 526.471 109.639C525.337 109.639 524.401 109.792 523.663 110.098C522.925 110.404 522.376 110.818 522.016 111.34C521.674 111.844 521.503 112.42 521.503 113.068C521.503 113.806 521.71 114.4 522.124 114.85C522.556 115.3 523.114 115.651 523.798 115.903C524.5 116.155 525.265 116.38 526.093 116.578C526.921 116.776 527.74 116.992 528.55 117.226C529.378 117.46 530.134 117.766 530.818 118.144C531.52 118.504 532.078 118.99 532.492 119.602C532.924 120.214 533.14 121.015 533.14 122.005C533.14 122.923 532.888 123.778 532.384 124.57C531.88 125.344 531.106 125.974 530.062 126.46C529.036 126.928 527.713 127.162 526.093 127.162Z" fill="#ED5B00"/>
</svg>
